<?xml version="1.0" encoding="utf-8" ?>
<svg baseProfile="full" height="600.0mm" version="1.1" viewBox="0 0 800.0 600.0" width="800.0mm" xmlns="http://www.w3.org/2000/svg" xmlns:ev="http://www.w3.org/2001/xml-events" xmlns:xlink="http://www.w3.org/1999/xlink"><defs /><path d="M 166.000,592.000 L 316.000,592.000 L 316.000,222.000 L 166.000,222.000 Z" fill="none" fill-rule="evenodd" stroke="#ff0000" stroke-width="0.3" /><text fill="#000000" font-family="sans-serif" font-size="6px" x="171.0" y="227.0">FRONT</text><path d="M 8.000,592.000 L 158.000,592.000 L 158.000,192.000 L 8.000,192.000 Z" fill="none" fill-rule="evenodd" stroke="#ff0000" stroke-width="0.3" /><path d="M 28.000,577.000 L 27.619,575.087 L 26.536,573.464 L 24.913,572.381 L 23.000,572.000 L 21.087,572.381 L 19.464,573.464 L 18.381,575.087 L 18.000,577.000 L 18.381,578.913 L 19.464,580.536 L 21.087,581.619 L 23.000,582.000 L 24.913,581.619 L 26.536,580.536 L 27.619,578.913 Z" fill="none" fill-rule="evenodd" stroke="#ff0000" stroke-width="0.3" /><path d="M 17.750,584.000 L 17.617,583.330 L 17.237,582.763 L 16.670,582.383 L 16.000,582.250 L 15.330,582.383 L 14.763,582.763 L 14.383,583.330 L 14.250,584.000 L 14.383,584.670 L 14.763,585.237 L 15.330,585.617 L 16.000,585.750 L 16.670,585.617 L 17.237,585.237 L 17.617,584.670 Z" fill="none" fill-rule="evenodd" stroke="#ff0000" stroke-width="0.3" /><path d="M 151.750,584.000 L 151.617,583.330 L 151.237,582.763 L 150.670,582.383 L 150.000,582.250 L 149.330,582.383 L 148.763,582.763 L 148.383,583.330 L 148.250,584.000 L 148.383,584.670 L 148.763,585.237 L 149.330,585.617 L 150.000,585.750 L 150.670,585.617 L 151.237,585.237 L 151.617,584.670 Z" fill="none" fill-rule="evenodd" stroke="#ff0000" stroke-width="0.3" /><path d="M 17.750,200.000 L 17.617,199.330 L 17.237,198.763 L 16.670,198.383 L 16.000,198.250 L 15.330,198.383 L 14.763,198.763 L 14.383,199.330 L 14.250,200.000 L 14.383,200.670 L 14.763,201.237 L 15.330,201.617 L 16.000,201.750 L 16.670,201.617 L 17.237,201.237 L 17.617,200.670 Z" fill="none" fill-rule="evenodd" stroke="#ff0000" stroke-width="0.3" /><path d="M 151.750,200.000 L 151.617,199.330 L 151.237,198.763 L 150.670,198.383 L 150.000,198.250 L 149.330,198.383 L 148.763,198.763 L 148.383,199.330 L 148.250,200.000 L 148.383,200.670 L 148.763,201.237 L 149.330,201.617 L 150.000,201.750 L 150.670,201.617 L 151.237,201.237 L 151.617,200.670 Z" fill="none" fill-rule="evenodd" stroke="#ff0000" stroke-width="0.3" /><path d="M 17.750,392.000 L 17.617,391.330 L 17.237,390.763 L 16.670,390.383 L 16.000,390.250 L 15.330,390.383 L 14.763,390.763 L 14.383,391.330 L 14.250,392.000 L 14.383,392.670 L 14.763,393.237 L 15.330,393.617 L 16.000,393.750 L 16.670,393.617 L 17.237,393.237 L 17.617,392.670 Z" fill="none" fill-rule="evenodd" stroke="#ff0000" stroke-width="0.3" /><path d="M 151.750,392.000 L 151.617,391.330 L 151.237,390.763 L 150.670,390.383 L 150.000,390.250 L 149.330,390.383 L 148.763,390.763 L 148.383,391.330 L 148.250,392.000 L 148.383,392.670 L 148.763,393.237 L 149.330,393.617 L 150.000,393.750 L 150.670,393.617 L 151.237,393.237 L 151.617,392.670 Z" fill="none" fill-rule="evenodd" stroke="#ff0000" stroke-width="0.3" /><text fill="#000000" font-family="sans-serif" font-size="6px" x="13.0" y="197.0">BACK</text><path d="M 324.000,592.000 L 444.000,592.000 L 444.000,192.000 L 354.000,192.000 L 324.000,222.000 Z" fill="none" fill-rule="evenodd" stroke="#ff0000" stroke-width="0.3" /><path d="M 330.750,584.000 L 330.617,583.330 L 330.237,582.763 L 329.670,582.383 L 329.000,582.250 L 328.330,582.383 L 327.763,582.763 L 327.383,583.330 L 327.250,584.000 L 327.383,584.670 L 327.763,585.237 L 328.330,585.617 L 329.000,585.750 L 329.670,585.617 L 330.237,585.237 L 330.617,584.670 Z" fill="none" fill-rule="evenodd" stroke="#ff0000" stroke-width="0.3" /><path d="M 440.750,584.000 L 440.617,583.330 L 440.237,582.763 L 439.670,582.383 L 439.000,582.250 L 438.330,582.383 L 437.763,582.763 L 437.383,583.330 L 437.250,584.000 L 437.383,584.670 L 437.763,585.237 L 438.330,585.617 L 439.000,585.750 L 439.670,585.617 L 440.237,585.237 L 440.617,584.670 Z" fill="none" fill-rule="evenodd" stroke="#ff0000" stroke-width="0.3" /><path d="M 440.750,200.000 L 440.617,199.330 L 440.237,198.763 L 439.670,198.383 L 439.000,198.250 L 438.330,198.383 L 437.763,198.763 L 437.383,199.330 L 437.250,200.000 L 437.383,200.670 L 437.763,201.237 L 438.330,201.617 L 439.000,201.750 L 439.670,201.617 L 440.237,201.237 L 440.617,200.670 Z" fill="none" fill-rule="evenodd" stroke="#ff0000" stroke-width="0.3" /><path d="M 330.750,237.000 L 330.617,236.330 L 330.237,235.763 L 329.670,235.383 L 329.000,235.250 L 328.330,235.383 L 327.763,235.763 L 327.383,236.330 L 327.250,237.000 L 327.383,237.670 L 327.763,238.237 L 328.330,238.617 L 329.000,238.750 L 329.670,238.617 L 330.237,238.237 L 330.617,237.670 Z" fill="none" fill-rule="evenodd" stroke="#ff0000" stroke-width="0.3" /><text fill="#000000" font-family="sans-serif" font-size="6px" x="329.0" y="197.0">LEFT</text><path d="M 452.000,592.000 L 572.000,592.000 L 572.000,192.000 L 482.000,192.000 L 452.000,222.000 Z" fill="none" fill-rule="evenodd" stroke="#ff0000" stroke-width="0.3" /><path d="M 516.000,392.000 L 515.696,390.469 L 514.828,389.172 L 513.531,388.304 L 512.000,388.000 L 510.469,388.304 L 509.172,389.172 L 508.304,390.469 L 508.000,392.000 L 508.304,393.531 L 509.172,394.828 L 510.469,395.696 L 512.000,396.000 L 513.531,395.696 L 514.828,394.828 L 515.696,393.531 Z" fill="none" fill-rule="evenodd" stroke="#ff0000" stroke-width="0.3" /><path d="M 499.350,392.000 L 499.247,391.483 L 498.955,391.045 L 498.517,390.753 L 498.000,390.650 L 497.483,390.753 L 497.045,391.045 L 496.753,391.483 L 496.650,392.000 L 496.753,392.517 L 497.045,392.955 L 497.483,393.247 L 498.000,393.350 L 498.517,393.247 L 498.955,392.955 L 499.247,392.517 Z" fill="none" fill-rule="evenodd" stroke="#ff0000" stroke-width="0.3" /><path d="M 527.350,392.000 L 527.247,391.483 L 526.955,391.045 L 526.517,390.753 L 526.000,390.650 L 525.483,390.753 L 525.045,391.045 L 524.753,391.483 L 524.650,392.000 L 524.753,392.517 L 525.045,392.955 L 525.483,393.247 L 526.000,393.350 L 526.517,393.247 L 526.955,392.955 L 527.247,392.517 Z" fill="none" fill-rule="evenodd" stroke="#ff0000" stroke-width="0.3" /><path d="M 506.500,292.000 L 505.891,288.939 L 504.157,286.343 L 501.561,284.609 L 498.500,284.000 L 495.439,284.609 L 492.843,286.343 L 491.109,288.939 L 490.500,292.000 L 491.109,295.061 L 492.843,297.657 L 495.439,299.391 L 498.500,300.000 L 501.561,299.391 L 504.157,297.657 L 505.891,295.061 Z" fill="none" fill-rule="evenodd" stroke="#ff0000" stroke-width="0.3" /><path d="M 533.500,292.000 L 532.891,288.939 L 531.157,286.343 L 528.561,284.609 L 525.500,284.000 L 522.439,284.609 L 519.843,286.343 L 518.109,288.939 L 517.500,292.000 L 518.109,295.061 L 519.843,297.657 L 522.439,299.391 L 525.500,300.000 L 528.561,299.391 L 531.157,297.657 L 532.891,295.061 Z" fill="none" fill-rule="evenodd" stroke="#ff0000" stroke-width="0.3" /><path d="M 473.600,292.000 L 473.478,291.388 L 473.131,290.869 L 472.612,290.522 L 472.000,290.400 L 471.388,290.522 L 470.869,290.869 L 470.522,291.388 L 470.400,292.000 L 470.522,292.612 L 470.869,293.131 L 471.388,293.478 L 472.000,293.600 L 472.612,293.478 L 473.131,293.131 L 473.478,292.612 Z" fill="none" fill-rule="evenodd" stroke="#ff0000" stroke-width="0.3" /><path d="M 553.600,292.000 L 553.478,291.388 L 553.131,290.869 L 552.612,290.522 L 552.000,290.400 L 551.388,290.522 L 550.869,290.869 L 550.522,291.388 L 550.400,292.000 L 550.522,292.612 L 550.869,293.131 L 551.388,293.478 L 552.000,293.600 L 552.612,293.478 L 553.131,293.131 L 553.478,292.612 Z" fill="none" fill-rule="evenodd" stroke="#ff0000" stroke-width="0.3" /><text fill="#000000" font-family="sans-serif" font-size="6px" x="457.0" y="197.0">RIGHT</text><path d="M 8.000,184.000 L 158.000,184.000 L 158.000,94.000 L 8.000,94.000 Z" fill="none" fill-rule="evenodd" stroke="#ff0000" stroke-width="0.3" /><path d="M 128.000,169.000 L 128.780,168.923 L 129.531,168.696 L 130.222,168.326 L 130.828,167.828 L 131.326,167.222 L 131.696,166.531 L 131.923,165.780 L 132.000,165.000 L 132.000,133.000 L 131.923,132.220 L 131.696,131.469 L 131.326,130.778 L 130.828,130.172 L 130.222,129.674 L 129.531,129.304 L 128.780,129.077 L 128.000,129.000 L 38.000,129.000 L 37.220,129.077 L 36.469,129.304 L 35.778,129.674 L 35.172,130.172 L 34.674,130.778 L 34.304,131.469 L 34.077,132.220 L 34.000,133.000 L 34.000,165.000 L 34.077,165.780 L 34.304,166.531 L 34.674,167.222 L 35.172,167.828 L 35.778,168.326 L 36.469,168.696 L 37.220,168.923 L 38.000,169.000 Z" fill="none" fill-rule="evenodd" stroke="#ff0000" stroke-width="0.3" /><path d="M 38.100,176.500 L 37.978,175.888 L 37.631,175.369 L 37.112,175.022 L 36.500,174.900 L 35.888,175.022 L 35.369,175.369 L 35.022,175.888 L 34.900,176.500 L 35.022,177.112 L 35.369,177.631 L 35.888,177.978 L 36.500,178.100 L 37.112,177.978 L 37.631,177.631 L 37.978,177.112 Z" fill="none" fill-rule="evenodd" stroke="#ff0000" stroke-width="0.3" /><path d="M 131.100,176.500 L 130.978,175.888 L 130.631,175.369 L 130.112,175.022 L 129.500,174.900 L 128.888,175.022 L 128.369,175.369 L 128.022,175.888 L 127.900,176.500 L 128.022,177.112 L 128.369,177.631 L 128.888,177.978 L 129.500,178.100 L 130.112,177.978 L 130.631,177.631 L 130.978,177.112 Z" fill="none" fill-rule="evenodd" stroke="#ff0000" stroke-width="0.3" /><path d="M 38.100,121.500 L 37.978,120.888 L 37.631,120.369 L 37.112,120.022 L 36.500,119.900 L 35.888,120.022 L 35.369,120.369 L 35.022,120.888 L 34.900,121.500 L 35.022,122.112 L 35.369,122.631 L 35.888,122.978 L 36.500,123.100 L 37.112,122.978 L 37.631,122.631 L 37.978,122.112 Z" fill="none" fill-rule="evenodd" stroke="#ff0000" stroke-width="0.3" /><path d="M 131.100,121.500 L 130.978,120.888 L 130.631,120.369 L 130.112,120.022 L 129.500,119.900 L 128.888,120.022 L 128.369,120.369 L 128.022,120.888 L 127.900,121.500 L 128.022,122.112 L 128.369,122.631 L 128.888,122.978 L 129.500,123.100 L 130.112,122.978 L 130.631,122.631 L 130.978,122.112 Z" fill="none" fill-rule="evenodd" stroke="#ff0000" stroke-width="0.3" /><path d="M 87.000,106.500 L 86.696,104.969 L 85.828,103.672 L 84.531,102.804 L 83.000,102.500 L 81.469,102.804 L 80.172,103.672 L 79.304,104.969 L 79.000,106.500 L 79.304,108.031 L 80.172,109.328 L 81.469,110.196 L 83.000,110.500 L 84.531,110.196 L 85.828,109.328 L 86.696,108.031 Z" fill="none" fill-rule="evenodd" stroke="#ff0000" stroke-width="0.3" /><path d="M 76.600,114.500 L 76.478,113.888 L 76.131,113.369 L 75.612,113.022 L 75.000,112.900 L 74.388,113.022 L 73.869,113.369 L 73.522,113.888 L 73.400,114.500 L 73.522,115.112 L 73.869,115.631 L 74.388,115.978 L 75.000,116.100 L 75.612,115.978 L 76.131,115.631 L 76.478,115.112 Z" fill="none" fill-rule="evenodd" stroke="#ff0000" stroke-width="0.3" /><path d="M 92.600,114.500 L 92.478,113.888 L 92.131,113.369 L 91.612,113.022 L 91.000,112.900 L 90.388,113.022 L 89.869,113.369 L 89.522,113.888 L 89.400,114.500 L 89.522,115.112 L 89.869,115.631 L 90.388,115.978 L 91.000,116.100 L 91.612,115.978 L 92.131,115.631 L 92.478,115.112 Z" fill="none" fill-rule="evenodd" stroke="#ff0000" stroke-width="0.3" /><path d="M 76.600,98.500 L 76.478,97.888 L 76.131,97.369 L 75.612,97.022 L 75.000,96.900 L 74.388,97.022 L 73.869,97.369 L 73.522,97.888 L 73.400,98.500 L 73.522,99.112 L 73.869,99.631 L 74.388,99.978 L 75.000,100.100 L 75.612,99.978 L 76.131,99.631 L 76.478,99.112 Z" fill="none" fill-rule="evenodd" stroke="#ff0000" stroke-width="0.3" /><path d="M 92.600,98.500 L 92.478,97.888 L 92.131,97.369 L 91.612,97.022 L 91.000,96.900 L 90.388,97.022 L 89.869,97.369 L 89.522,97.888 L 89.400,98.500 L 89.522,99.112 L 89.869,99.631 L 90.388,99.978 L 91.000,100.100 L 91.612,99.978 L 92.131,99.631 L 92.478,99.112 Z" fill="none" fill-rule="evenodd" stroke="#ff0000" stroke-width="0.3" /><text fill="#000000" font-family="sans-serif" font-size="6px" x="13.0" y="99.0">TOP</text><path d="M 166.000,184.000 L 316.000,184.000 L 316.000,141.574 L 166.000,141.574 Z" fill="none" fill-rule="evenodd" stroke="#ff0000" stroke-width="0.3" /><path d="M 216.000,177.787 L 266.000,177.787 L 266.000,147.787 L 216.000,147.787 Z" fill="none" fill-rule="evenodd" stroke="#000000" stroke-width="0.5" /><text fill="#000000" font-family="sans-serif" font-size="6px" x="171.0" y="146.57359312880715">SLOPE</text><path d="M 324.000,184.000 L 474.000,184.000 L 474.000,64.000 L 324.000,64.000 Z" fill="none" fill-rule="evenodd" stroke="#ff0000" stroke-width="0.3" /><path d="M 384.000,155.500 L 414.000,155.500 L 414.000,152.500 L 384.000,152.500 Z" fill="none" fill-rule="evenodd" stroke="#ff0000" stroke-width="0.3" /><path d="M 384.000,125.500 L 414.000,125.500 L 414.000,122.500 L 384.000,122.500 Z" fill="none" fill-rule="evenodd" stroke="#ff0000" stroke-width="0.3" /><path d="M 384.000,95.500 L 414.000,95.500 L 414.000,92.500 L 384.000,92.500 Z" fill="none" fill-rule="evenodd" stroke="#ff0000" stroke-width="0.3" /><text fill="#000000" font-family="sans-serif" font-size="6px" x="329.0" y="69.0">BOTTOM</text><path d="M 482.000,184.000 L 632.000,184.000 L 632.000,169.000 L 482.000,169.000 Z" fill="none" fill-rule="evenodd" stroke="#ff0000" stroke-width="0.3" /><path d="M 488.100,176.500 L 488.016,176.079 L 487.778,175.722 L 487.421,175.484 L 487.000,175.400 L 486.579,175.484 L 486.222,175.722 L 485.984,176.079 L 485.900,176.500 L 485.984,176.921 L 486.222,177.278 L 486.579,177.516 L 487.000,177.600 L 487.421,177.516 L 487.778,177.278 L 488.016,176.921 Z" fill="none" fill-rule="evenodd" stroke="#ff0000" stroke-width="0.3" /><path d="M 496.100,176.500 L 496.016,176.079 L 495.778,175.722 L 495.421,175.484 L 495.000,175.400 L 494.579,175.484 L 494.222,175.722 L 493.984,176.079 L 493.900,176.500 L 493.984,176.921 L 494.222,177.278 L 494.579,177.516 L 495.000,177.600 L 495.421,177.516 L 495.778,177.278 L 496.016,176.921 Z" fill="none" fill-rule="evenodd" stroke="#ff0000" stroke-width="0.3" /><text fill="#000000" font-family="sans-serif" font-size="6px" x="487.0" y="174.0">ARM</text></svg>